<svg xmlns="http://www.w3.org/2000/svg" viewBox="0 0 64 64" width="64" height="64">
  <defs>
    <linearGradient id="g" x1="0" y1="0" x2="1" y2="1">
      <stop offset="0" stop-color="#ff87ab"/>
      <stop offset="0.5" stop-color="#b49df0"/>
      <stop offset="1" stop-color="#ffce54"/>
    </linearGradient>
  </defs>
  <rect x="3" y="3" width="58" height="58" rx="18" fill="#fff8f2"/>
  <rect x="3" y="3" width="58" height="58" rx="18" fill="none" stroke="url(#g)" stroke-width="2.5"/>
  <!-- cute light bulb -->
  <circle cx="32" cy="27" r="15" fill="#ffce54"/>
  <circle cx="32" cy="27" r="15" fill="none" stroke="#f7be3f" stroke-width="2"/>
  <!-- blush cheeks -->
  <circle cx="24" cy="30" r="2.6" fill="#ff87ab" opacity="0.8"/>
  <circle cx="40" cy="30" r="2.6" fill="#ff87ab" opacity="0.8"/>
  <!-- eyes -->
  <circle cx="27" cy="25" r="2" fill="#4e3f5a"/>
  <circle cx="37" cy="25" r="2" fill="#4e3f5a"/>
  <!-- smile -->
  <path d="M27 31 Q32 35 37 31" fill="none" stroke="#4e3f5a" stroke-width="2" stroke-linecap="round"/>
  <!-- base -->
  <rect x="26" y="41" width="12" height="5" rx="2" fill="#b49df0"/>
  <rect x="27.5" y="46" width="9" height="4" rx="2" fill="#9d7fe8"/>
  <!-- sparkle -->
  <path d="M50 14 l1.6 3.2 3.2 1.6 -3.2 1.6 -1.6 3.2 -1.6 -3.2 -3.2 -1.6 3.2 -1.6z" fill="#ff87ab"/>
</svg>
